<?xml version="1.0" standalone="no"?>
<!DOCTYPE svg PUBLIC "-//W3C//DTD SVG 20010904//EN"
 "http://www.w3.org/TR/2001/REC-SVG-20010904/DTD/svg10.dtd">
<svg version="1.0" xmlns="http://www.w3.org/2000/svg"
 width="700.000000pt" height="700.000000pt" viewBox="0 0 700.000000 700.000000"
 preserveAspectRatio="xMidYMid meet">
<metadata>
Created by potrace 1.11, written by Peter Selinger 2001-2013
</metadata>
<g transform="translate(0.000000,700.000000) scale(0.100000,-0.100000)"
fill="#000000" stroke="none">
<path d="M3445 6351 c-109 -27 -184 -126 -185 -242 0 -76 39 -152 103 -199
l47 -35 0 -102 0 -103 95 0 95 0 0 104 0 105 42 28 c96 64 134 195 88 301 -47
109 -170 171 -285 143z"/>
<path d="M3321 5560 c-173 -24 -310 -68 -471 -151 -340 -175 -598 -483 -709
-844 -52 -169 -61 -257 -61 -582 l0 -291 -46 -16 c-144 -49 -266 -188 -294
-335 -6 -32 -10 -271 -10 -596 l0 -542 -37 -24 c-110 -71 -141 -236 -65 -344
90 -129 286 -140 388 -21 100 116 70 305 -58 372 l-28 15 0 339 c0 187 4 340
8 340 4 0 13 -5 18 -10 6 -6 35 -19 65 -29 l54 -19 6 -204 c6 -219 16 -277 69
-394 112 -247 342 -429 607 -480 109 -21 1387 -21 1495 0 313 60 569 298 654
607 13 47 19 118 23 268 l6 203 45 15 c25 9 54 22 65 29 11 8 23 14 27 14 5 0
8 -152 7 -337 l0 -338 -42 -30 c-77 -57 -114 -139 -102 -229 30 -233 332 -297
453 -96 28 47 32 63 32 122 0 96 -43 178 -112 214 l-28 15 0 537 c0 347 -4
559 -11 598 -28 153 -145 290 -292 340 l-45 15 -5 332 c-4 315 -5 338 -30 440
-116 481 -458 863 -920 1026 -143 50 -264 71 -437 76 -85 2 -184 0 -219 -5z
m454 -459 c302 -64 529 -223 634 -444 58 -121 76 -207 76 -362 0 -121 -3 -149
-23 -207 -28 -80 -91 -156 -157 -188 -112 -54 -105 -54 -754 -57 -627 -4 -690
-1 -799 37 -97 34 -178 117 -208 213 -22 71 -29 240 -14 333 63 394 354 636
840 698 76 9 317 -4 405 -23z m83 -1768 c94 -59 11 -212 -92 -169 -68 28 -87
100 -41 155 36 43 81 47 133 14z m299 1 c24 -15 42 -66 35 -101 -2 -12 -15
-34 -29 -47 -40 -40 -96 -40 -137 0 -33 33 -39 67 -22 109 25 60 94 77 153 39z
m306 -15 c49 -52 30 -126 -39 -155 -29 -12 -39 -12 -66 -1 -42 18 -58 37 -65
81 -7 44 16 82 60 101 42 18 76 10 110 -26z"/>
<path d="M2816 4529 c-188 -44 -194 -327 -8 -379 68 -18 132 -6 182 37 94 79
93 234 -3 307 -26 20 -105 48 -127 45 -3 -1 -23 -5 -44 -10z"/>
<path d="M4096 4529 c-53 -13 -102 -51 -127 -101 -32 -62 -24 -154 17 -205 35
-44 105 -83 149 -83 124 0 214 98 203 220 -12 118 -124 196 -242 169z"/>
<path d="M2920 1598 c34 -142 164 -265 343 -325 75 -24 96 -27 237 -27 145 -1
161 1 244 28 181 60 304 173 344 319 l10 37 -593 0 -593 0 8 -32z"/>
</g>
</svg>
